<svg xmlns="http://www.w3.org/2000/svg" width="560.825px" height="178.309px" viewBox="0 0 9432.102 2998.84"><path d="M1678.358 2990.029V2502.33h106.959v487.698h-106.959zm653.775 0-236.111-309.932v310.086H1990.45V2502.33h98.636l227.789 300.348V2502.33h105.571v487.698h-90.313zm474.995-388.768v388.768h-106.959v-388.768h-147.954v-98.931h402.868v98.931h-147.955zm277.415 388.768V2502.33h366.803v95.376h-261.077v97.075h229.175v95.376h-229.175v104.341h264.007v95.376l-369.733.155zm842.416 0-104.801-155.971h-83.996v156.125h-106.959V2502.33h221.778c114.665 0 183.401 60.596 183.401 160.917v1.392c3.194 68.18-39.465 130.081-104.184 151.179l118.825 174.211h-124.064zm2.158-321.217c0-46.373-31.903-69.715-83.996-69.715h-106.342v140.049h107.883c52.093 0 81.992-27.824 81.992-68.942l.463-1.392zm625.416 321.217-235.494-310.087v310.087h-105.572V2502.33h98.637l227.787 300.348V2502.33h105.572v487.698h-90.93zm624.183 0-44.386-109.442h-206.059l-44.386 109.442H4774.77l208.369-491.254h98.637l208.368 491.254h-111.428zm-147.646-362.18-64.576 158.135h129.152l-64.576-158.135zm539.417-26.433v388.767h-106.959v-388.922h-147.954v-98.931h402.867v98.931l-147.954.155zm288.82 388.767V2502.33h106.959v487.698l-106.959.155zm532.328 8.348c-149.805.309-257.688-112.225-257.688-250.883v-1.392c0-139.121 109.115-252.273 259.074-252.273 149.957 0 257.687 112.225 257.687 250.883v1.391c.154 138.658-108.808 252.583-258.92 252.583l-.153-.309zm147.183-252.275c2.81-81.822-61.047-150.438-142.626-153.256a147.373 147.373 0 0 0-4.558-.087c-86.152 0-145.951 68.324-145.951 151.952v1.391c-2.809 81.823 61.047 150.438 142.626 153.256 1.519.053 3.038.082 4.558.087 86.152 0 145.951-68.324 145.951-151.951v-1.392zm627.728 243.773-235.495-310.087v310.087h-105.109V2502.33h98.637l227.789 300.348V2502.33h105.571v487.698h-91.393zm624.183 0-44.386-109.442H7541.21l-44.387 109.442h-109.116l208.369-491.254h98.637l208.369 491.254h-112.353zm-146.414-362.18-64.576 158.135h129.152l-64.576-158.135zm379.596 362.334V2502.33h106.959v390.158h242.43v97.54l-349.389.155zM5035.693 944.787a421.765 421.765 0 0 0-183.711-48.229c-127.918 0-200.354 92.748-219.312 123.664v994.255h-387.919V620.944h355.399l22.193 145.923c15.412-25.352 107.884-175.912 291.285-175.912a391.924 391.924 0 0 1 122.063 21.178v332.654zm920.554-332.655a392.122 392.122 0 0 0-122.063-21.178c-183.556 0-275.411 150.561-291.285 175.911l-22.193-145.923h-355.399V2014.63h387.919v-994.409c19.573-31.688 91.239-123.664 219.312-123.664a421.785 421.785 0 0 1 183.711 48.229l-.002-332.654zm-1949.145 408.862v993.637h-356.016l-22.193-145.305c-24.506 23.806-138.708 175.294-374.048 175.294-221.932 0-375.126-170.038-375.126-398.97 0-493.108 579.797-562.515 739.772-578.746v-39.572c0-80.69-67.505-164.473-246.591-164.473-189.259 0-335.056 104.96-361.256 123.663V699.159c151.215-72.705 317.02-109.72 484.705-108.205 356.632-.308 510.753 163.081 510.753 430.04zm-387.919 318.28c-123.296 0-348.464 42.51-348.464 237.589 0 98.931 67.504 170.037 152.115 170.037 110.041 0 196.348-79.145 196.348-257.375l.001-150.251zM1490.333 207.752l348.772 750.638-136.858 293.701L1120.447-.003 677.2 207.288l348.464 749.556c-27.279 58.432-71.05 153.497-141.944 304.831-159.359 341.775-282.655 437.46-501.042 437.46a544.462 544.462 0 0 1-176.004-32.616L0 2110.78a891.604 891.604 0 0 0 330.124 68.789c258.458 0 448.333-168.492 613.395-523.716l203.437-437.46 369.887 796.703h539.418l-233.646-502.384 136.858-293.701 369.886 796.703h539.418L1933.58-.003l-443.247 207.755zm7744.956 413.346V159.987l-387.918 181.477v279.635H8723.15v242.38h124.373v1151.309h387.918V863.323h196.656v-242.38l-196.808.155zM6101.428 2014.786h387.918V620.943h-387.918v1393.843zM8411.521 159.832l-387.918 181.477v279.634h-124.374v242.381h124.374v1151.309h387.918V863.323h196.811v-242.38h-196.811V159.832zm-602.915 1043.257v229.241c0 332.191-161.825 612.444-559.299 612.444s-559.298-278.243-559.298-612.444v-229.087c0-333.582 161.824-612.444 559.298-612.444s559.299 280.253 559.299 612.444v-.154zm-391.001-55.184c0-166.637-40.379-284.891-168.298-284.891s-168.298 118.254-168.298 284.891v340.074c0 166.637 39.609 284.891 168.298 284.891s168.298-118.254 168.298-284.891v-340.074z"/></svg>