<svg xmlns="http://www.w3.org/2000/svg" width="66" height="18" viewBox="0 0 66 18"><path fill="#151F6D" fill-rule="evenodd" d="M65.556 3.425a1.42 1.42 0 0 1-1.07.463c-.418 0-.774-.154-1.07-.463a1.561 1.561 0 0 1-.436-1.114c0-.432.147-.802.442-1.108.294-.306.65-.46 1.065-.46.419 0 .775.154 1.069.46.296.304.444.675.444 1.108 0 .434-.148.805-.444 1.114zm-.148-2.07a1.237 1.237 0 0 0-.921-.396c-.359 0-.664.132-.918.396-.253.265-.38.585-.38.958 0 .376.126.697.378.962.253.267.559.398.92.398.36 0 .667-.131.92-.398.252-.265.38-.586.38-.962 0-.373-.128-.693-.38-.958h.001zm-.356 1.18a.506.506 0 0 1 .09.268v.126l.003.128c0 .03.005.062.015.091l.01.02h-.272l-.005-.016c-.002-.006-.002-.013-.003-.02l-.007-.056v-.137c0-.198-.054-.33-.157-.394-.063-.036-.17-.056-.326-.056h-.229v.68h-.294V1.444h.581c.205 0 .356.02.453.061.17.075.256.222.256.438 0 .153-.054.267-.16.341a.621.621 0 0 1-.241.082.396.396 0 0 1 .286.17v-.001zm-.167-.567c0-.125-.039-.209-.113-.252-.072-.045-.19-.067-.352-.067h-.249v.628h.263c.095.004.19-.01.279-.039a.271.271 0 0 0 .172-.27zm-7.828 11.32h-1.526V1.992h-3.69V.739h8.904v1.253h-3.688v11.296zm-12.774-1.745c3.637 1.057 7.05 2.592 10.496 4.615v.342c-5.366-2.425-11.4-4.222-18.491-4.828l2.159 5.45h-1.672l-2.131-5.568a63.483 63.483 0 0 0-6.282-.052l-2.152 5.62h-1.672l2.19-5.53c-7.522.514-13.928 2.366-19.555 4.906v-.343c3.755-2.179 7.47-3.804 11.478-4.867V7.943L14.136.739h1.677l3.584 5.986L22.98.739h1.675l-4.514 7.204v2.979a45.906 45.906 0 0 1 7.257-1.023L31.119.5h.747l3.75 9.474c2.517.21 4.877.594 7.14 1.157v-9.14h-3.69V.74h8.905v1.253h-3.688v9.551-.001zm-12.79-8.222-2.489 6.5a58.773 58.773 0 0 1 4.993.044l-2.504-6.544zM8.11 7.097H1.527v6.191H0V.738h1.527v5.107H8.11V.739h1.526v12.55l-1.526.001V7.097z"/></svg>