<svg xmlns="http://www.w3.org/2000/svg" id="Layer_2" viewBox="0 0 242.62 39.39"><defs><clipPath id="clippath"><path d="M66.98 0h34.49v39.39H66.98z" class="cls-1"/></clipPath><clipPath id="clippath-1"><path d="M229.15.46h13.47v14.56h-13.47z" class="cls-1"/></clipPath><style>.cls-1{fill:none}.cls-3{fill-rule:evenodd}</style></defs><g id="Layer_1-2"><g id="Header-Phase-1"><g id="Header_Large_1008px_alt"><g id="Primary"><g id="IHG-Logo-Secondary-Horizontal"><g id="Group-38"><path id="Fill-1" d="M54.85.64H49.1V17.4H28.31V.64h-5.7v38.11h5.7V21.34H49.1v17.41h5.75z"/><path id="Fill-2" d="M0 38.75h5.7V.64H0z"/><g id="Group-37"><g id="Group-5" style="clip-path:url(#clippath)"><g id="Clip-Path:_Clip-Path:_Fill-3"><g id="Clip-Path:_Fill-3"><path id="Fill-3" d="M95.71 20.41v14.77c-1.61 1.1-4.31 1.96-7.37 1.96-8.92 0-15.02-7.89-15.02-17.85 0-9.38 5.35-17.1 14.28-17.1 6.16 0 9.67 2.88 12.26 6.1h.29V1.67C98.31 1.21 93.18 0 87.83 0 74.87 0 66.98 9.45 66.98 19.81c0 11.34 8.53 19.58 20.96 19.58 6.16 0 10.94-2.36 13.53-3.11V20.41z" class="cls-3"/></g></g></g><path id="Fill-6" d="M105.19 1.03c1.3 0 2.29 1.01 2.29 2.28s-1.01 2.28-2.29 2.28-2.28-.98-2.28-2.27 1.01-2.29 2.28-2.29m0 .37c-1.09 0-1.87.8-1.87 1.92s.82 1.9 1.87 1.9 1.88-.79 1.88-1.91-.78-1.91-1.88-1.91m-.78.76h.8c.52 0 .86.21.86.68 0 .35-.2.53-.46.62l.59.95h-.51l-.55-.87h-.23v.87h-.5zm.78 1.04c.26 0 .4-.12.4-.33 0-.25-.15-.33-.4-.33h-.28v.66z" class="cls-3"/><path id="Fill-8" d="M122.02.67h1.85v6.42h10.89V.67h1.85v14.21h-1.85v-6.3h-10.89v6.3h-1.85z"/><path id="Fill-10" d="M140.55 7.87v-.16c0-4.04 3.67-7.22 9.34-7.22s9.34 3.18 9.34 7.18v.16c0 4.01-3.68 7.23-9.28 7.23s-9.4-3.22-9.4-7.19m16.75-.06v-.16c0-3.16-2.72-5.75-7.41-5.75s-7.42 2.43-7.42 5.79v.16c0 3.41 3.06 5.76 7.48 5.76s7.35-2.39 7.35-5.8" class="cls-3"/><path id="Fill-12" d="M166.62 2.1h-5.84V.67h13.53V2.1h-5.84v12.78h-1.85z"/><path id="Fill-14" d="M177.81.67h11.96V2.1h-10.11v4.79h8.52v1.43h-8.52v5.13h10.59v1.43h-12.44z"/><path id="Fill-16" d="M193.91.67h1.84v12.78h9.17v1.43h-11.01z"/><path id="Fill-18" d="M207.16 10.55h1.81c.3 1.75 1.63 3.1 5.43 3.1 3.04 0 4.75-1.03 4.75-2.76s-1.26-2.21-5.15-2.67c-3.92-.45-6.1-1.39-6.1-3.93 0-2.19 2.28-3.8 6.02-3.8s6.06 1.31 6.44 3.92h-1.69c-.44-1.85-1.99-2.51-4.75-2.51-3 0-4.29.92-4.29 2.35 0 1.27.93 2.01 4.9 2.46 4.18.48 6.4 1.32 6.4 4.12 0 2.46-2.42 4.23-6.53 4.23-4.77 0-6.88-2.01-7.24-4.51" class="cls-3"/><path id="Fill-20" d="M122.02 24.51h6.76c3.16 0 5.82 1.17 5.82 4.17v.08c0 2.46-2.08 3.7-4.07 4.05l5.21 5.91h-2.23l-5.09-5.77h-4.55v5.77h-1.85zm6.88 7.05c2.37 0 3.86-.97 3.86-2.78v-.08c0-2.03-1.61-2.78-3.86-2.78h-5.03v5.64z" class="cls-3"/><path id="Fill-22" d="M139.79 24.51h11.96v1.43h-10.11v4.79h8.52v1.43h-8.52v5.13h10.59v1.43h-12.44z"/><path id="Fill-24" d="M155.37 34.38h1.81c.3 1.75 1.63 3.1 5.43 3.1 3.04 0 4.75-1.03 4.75-2.76s-1.26-2.2-5.15-2.66c-3.92-.46-6.1-1.39-6.1-3.94 0-2.18 2.28-3.79 6.02-3.79s6.06 1.31 6.44 3.91h-1.69c-.44-1.85-1.99-2.5-4.75-2.5-3 0-4.29.91-4.29 2.34 0 1.28.93 2.01 4.9 2.47 4.18.48 6.4 1.31 6.4 4.11 0 2.47-2.42 4.24-6.53 4.24-4.77 0-6.88-2.01-7.24-4.52" class="cls-3"/><path id="Fill-26" d="M172.72 31.7v-.16c0-4.03 3.68-7.21 9.34-7.21s9.34 3.18 9.34 7.17v.16c0 4.02-3.67 7.24-9.28 7.24s-9.4-3.22-9.4-7.2m16.75-.06v-.16c0-3.16-2.72-5.74-7.41-5.74s-7.41 2.42-7.41 5.78v.16c0 3.42 3.06 5.76 7.47 5.76s7.35-2.38 7.35-5.8" class="cls-3"/><path id="Fill-28" d="M196.01 24.51h6.76c3.16 0 5.82 1.17 5.82 4.17v.08c0 2.46-2.08 3.7-4.07 4.05l5.2 5.91h-2.22l-5.09-5.77h-4.55v5.77h-1.85zm6.88 7.05c2.36 0 3.85-.97 3.85-2.78v-.08c0-2.03-1.61-2.78-3.85-2.78h-5.03v5.64z" class="cls-3"/><path id="Fill-30" d="M217.83 25.94h-5.84v-1.43h13.53v1.43h-5.84v12.78h-1.85z"/><path id="Fill-32" d="M228.11 34.38h1.81c.29 1.75 1.63 3.1 5.42 3.1 3.04 0 4.75-1.03 4.75-2.76s-1.25-2.2-5.15-2.66c-3.91-.46-6.1-1.39-6.1-3.94 0-2.18 2.29-3.79 6.02-3.79s6.07 1.31 6.44 3.91h-1.69c-.43-1.85-1.98-2.5-4.75-2.5-3 0-4.29.91-4.29 2.34 0 1.28.94 2.01 4.91 2.47 4.17.48 6.4 1.31 6.4 4.11 0 2.47-2.42 4.24-6.54 4.24-4.77 0-6.87-2.01-7.23-4.52" class="cls-3"/><g id="Group-36" style="clip-path:url(#clippath-1)"><g id="Clip-Path:_Clip-Path:_Fill-34"><g id="Clip-Path:_Fill-34"><path id="Fill-34" d="M238.63 12.93c-1.05 1.18-2.57 2.09-4.64 2.09-2.92 0-4.84-1.41-4.84-3.8s1.75-3.5 3.56-4.18c-.94-.83-1.57-1.83-1.57-3.16 0-2.19 1.79-3.42 3.8-3.42 2.16 0 3.6 1.39 3.6 3.3 0 1.41-1.11 2.79-3.28 3.64l3.45 3.5 2.24-3.36h1.53l-2.85 4.3 2.99 3.04h-2.1zm-.84-.85-4.1-4.2c-1.68.62-2.91 1.55-2.91 3.24 0 1.55 1.14 2.53 3.24 2.53 1.67 0 2.92-.66 3.77-1.57m-.73-8.36c0-1.09-.78-1.95-2.15-1.95-1.27 0-2.27.72-2.27 2.13 0 1.08.72 1.91 1.68 2.69 2-.86 2.74-1.73 2.74-2.87" class="cls-3"/></g></g></g></g></g></g></g></g></g></g></svg>