<svg xmlns="http://www.w3.org/2000/svg" xml:space="preserve" width="425.92" height="217.9" fill="#231f20" viewBox="0 0 425.92 217.9"><path d="M6.917 7.672h395.23v138.04H6.918ZM0 152.687h409.18V.756H0v151.931"/><path d="M109.502 40.453v72.362l5.696.756v4.243H87.125v-4.243l6.045-.756V79.86H57.25v32.955l5.522.756v4.243H35.164v-4.243l5.522-.756V40.453l-5.522-.756v-4.126h27.608v4.126l-5.522.756v30.921h35.92v-30.92l-6.045-.757v-4.126h28.073v4.126l-5.696.756M147.805 113.338l5.289.756v3.72h-25.806v-3.72l5.289-.756V63.76l-5.29-.756v-3.72h20.518v54.054M164.311 114.21l5.173-.697V39.988l-5.173-.755v-3.604h20.518v77.884l5.289.697v3.662H164.31v-3.662M221.504 59.285h13.833v5.463h-13.833v34.815c0 9.01 1.86 11.857 10.055 11.857 3.022 0 5.696 0 8.195-.639v4.01c-7.44 2.616-13.717 3.72-19.006 3.72-11.857 0-14.589-5.347-14.589-15.577V64.748h-10.81v-5.463h11.217V47.079l14.996-4.475v16.68M304.793 89.101c0 18.25-12.322 30.456-31.735 30.456-18.773 0-30.747-7.962-30.747-30.456 0-18.831 12.322-31.444 31.735-31.444 19.18 0 30.747 11.392 30.747 31.444m-16.856-.348c0-18.483-5.521-26.562-14.472-26.562-8.718 0-14.24 7.73-14.24 26.562 0 18.599 5.522 26.329 14.24 26.329 9.3 0 14.472-7.382 14.472-26.33M374.888 114.094v3.72h-25.806v-3.72l5.173-.756V80.034c0-9.241-3.43-13.368-10.462-13.368-3.255 0-8.428 2.267-12.206 4.882v41.79l5.29.756v3.72h-25.923v-3.72l5.289-.756V64.167l-5.29-.756v-4.126h20.634v8.137c6.394-5.115 12.613-9.242 21.273-9.242 11.566 0 16.74 6.743 16.74 19.994v35.222l5.288.698M148.56 43.824c0 4.534-3.72 8.254-8.311 8.254-4.592 0-8.312-3.662-8.312-8.254 0-4.533 3.72-8.253 8.312-8.253 4.592 0 8.311 3.72 8.311 8.253M419.526 5.231h1.22c.814 0 1.105-.232 1.105-.814 0-.58-.29-.813-1.104-.813h-1.22zm3.371-.872c0 .814-.349 1.279-1.046 1.511l1.279 1.86h-1.163l-1.162-1.685h-1.279V7.73h-.988V2.732h2.209c1.51 0 2.15.523 2.15 1.627zm-6.393.93c0 2.267 1.86 4.185 4.185 4.185 2.266 0 4.184-1.86 4.184-4.185 0-2.267-1.86-4.185-4.184-4.185a4.167 4.167 0 0 0-4.185 4.185zm9.416 0c0 2.906-2.384 5.29-5.29 5.29s-5.289-2.384-5.289-5.29S417.724 0 420.631 0c2.964 0 5.289 2.325 5.289 5.29M14.937 217.203H8.718c-.697 0-1.046-.349-1.046-1.046v-33.828c0-.697.349-1.046 1.046-1.046h22.436c.697 0 1.046.349 1.046 1.046v5.464c0 .697-.349 1.046-1.046 1.046h-15.17v8.66h11.45c.697 0 1.046.349 1.046 1.046v5.057c0 .698-.349 1.046-1.046 1.046h-11.45v11.683c0 .581-.35.872-1.047.872M61.9 208.542c1.57-.93 2.79-2.208 3.72-3.836.93-1.627 1.395-3.429 1.395-5.405 0-1.976-.465-3.778-1.395-5.405a10.403 10.403 0 0 0-3.778-3.836 9.75 9.75 0 0 0-5.057-1.395c-1.801 0-3.545.465-5.056 1.395-1.57.93-2.79 2.208-3.72 3.836-.93 1.627-1.395 3.429-1.395 5.405 0 1.976.465 3.778 1.395 5.405a10.403 10.403 0 0 0 3.778 3.836 9.75 9.75 0 0 0 5.057 1.395 9.75 9.75 0 0 0 5.056-1.395zm-14.53 6.859c-2.848-1.686-5.115-3.894-6.743-6.742-1.627-2.848-2.44-5.987-2.44-9.416 0-3.43.813-6.51 2.44-9.358 1.628-2.848 3.895-5.056 6.743-6.742 2.848-1.627 5.986-2.441 9.474-2.441 3.429 0 6.567.814 9.415 2.441a17.88 17.88 0 0 1 6.742 6.742c1.628 2.848 2.442 5.987 2.442 9.358 0 3.43-.814 6.51-2.442 9.416a17.88 17.88 0 0 1-6.742 6.742c-2.848 1.685-5.986 2.5-9.415 2.5-3.488-.059-6.626-.873-9.474-2.5M100.842 197.732c.756-.465 1.337-1.046 1.744-1.802.407-.756.639-1.57.639-2.5 0-.987-.232-1.86-.64-2.615-.406-.697-.987-1.278-1.743-1.627-.697-.349-1.511-.523-2.441-.523h-6.277v9.706h6.16c.93 0 1.802-.174 2.558-.64zM83.87 216.215v-33.827c0-.698.35-1.047 1.047-1.047h14.181c2.441 0 4.65.523 6.51 1.511 1.918 1.047 3.371 2.442 4.417 4.243 1.047 1.802 1.57 3.895 1.57 6.278 0 2.324-.465 4.3-1.453 5.928-.989 1.627-2.325 2.964-4.127 4.01l6.277 12.671c.116.233.174.407.174.523 0 .233-.058.349-.232.465a1.172 1.172 0 0 1-.64.175h-7.148c-.582 0-.988-.233-1.221-.756l-5.115-10.985h-5.986v10.694c0 .698-.349 1.047-1.047 1.047h-6.219c-.697.058-.988-.233-.988-.93M154.14 217.203h-6.219c-.697 0-1.046-.349-1.046-1.046v-27.144h-8.951c-.697 0-1.046-.348-1.046-1.046v-5.696c0-.697.349-1.046 1.046-1.046h26.213c.698 0 1.046.349 1.046 1.046v5.696c0 .698-.348 1.046-1.046 1.046h-9.009v27.144c.058.755-.29 1.046-.988 1.046M182.039 217.203h-6.22c-.697 0-1.046-.349-1.046-1.046v-33.828c0-.697.35-1.046 1.047-1.046h6.219c.697 0 1.046.349 1.046 1.046v12.206h14.589v-12.206c0-.697.348-1.046 1.046-1.046h6.277c.697 0 1.046.349 1.046 1.046v33.828c0 .697-.349 1.046-1.046 1.046h-6.277c-.698 0-1.046-.349-1.046-1.046V202.44h-14.59v13.717c-.057.755-.348 1.046-1.045 1.046M243.648 217.203h-24.237c-.697 0-1.046-.349-1.046-1.046v-33.828c0-.697.349-1.046 1.046-1.046H243.3c.697 0 1.046.349 1.046 1.046v5.522c0 .697-.349 1.046-1.046 1.046h-16.623v6.452h12.786c.698 0 1.047.348 1.047 1.046v5.057c0 .697-.35 1.046-1.047 1.046h-12.786v7.265h16.971c.698 0 1.046.349 1.046 1.046v5.522c-.058.581-.406.872-1.046.872M277.01 216.273c-2.383-1.046-4.475-2.558-6.277-4.534a.92.92 0 0 1-.29-.697c0-.233.116-.523.406-.756l3.953-3.778c.232-.232.465-.349.697-.349.29 0 .523.117.756.407 1.162 1.163 2.441 2.093 3.894 2.674 1.453.581 2.964.93 4.475.93 1.628 0 2.907-.29 3.778-.93.872-.581 1.337-1.453 1.337-2.5 0-.697-.174-1.336-.581-1.801-.407-.523-1.104-.988-2.092-1.395-.989-.465-2.383-.93-4.185-1.453-2.964-.872-5.522-2.15-7.73-3.894-2.151-1.744-3.255-4.127-3.255-7.266 0-1.86.465-3.545 1.453-5.114.93-1.57 2.383-2.79 4.3-3.72 1.919-.93 4.244-1.395 6.975-1.395 2.325 0 4.534.407 6.684 1.22 2.093.814 4.01 1.919 5.696 3.372.233.232.407.465.407.697 0 .233-.116.465-.29.698l-3.604 4.068c-.232.29-.465.407-.755.407-.233 0-.465-.116-.698-.29a14.556 14.556 0 0 0-3.371-1.919c-1.279-.523-2.5-.755-3.72-.755-1.395 0-2.5.232-3.255.697-.813.465-1.162 1.163-1.162 2.034 0 .698.232 1.28.697 1.802.465.465 1.047.872 1.802 1.22.756.35 1.918.756 3.43 1.221.057 0 .29.059.639.233 2.44.814 4.475 1.685 6.103 2.615 1.627.93 2.848 2.093 3.777 3.488.93 1.395 1.337 3.08 1.337 5.056 0 2.267-.581 4.243-1.685 5.929-1.105 1.685-2.674 3.022-4.65 3.952-2.034.93-4.301 1.395-6.975 1.395-3.022 0-5.638-.523-8.02-1.57M321.823 217.203h-6.22c-.697 0-1.046-.349-1.046-1.046v-27.144h-8.95c-.698 0-1.047-.348-1.047-1.046v-5.696c0-.697.35-1.046 1.047-1.046h26.213c.697 0 1.046.349 1.046 1.046v5.696c0 .698-.349 1.046-1.046 1.046h-9.01v27.144c.059.755-.29 1.046-.987 1.046M356.812 204.125l-4.068-11.508-.407-1.453-.349 1.453-4.068 11.508zm12.67 12.38c0 .233-.057.407-.232.523-.174.117-.348.175-.639.175h-6.393c-.582 0-.989-.29-1.163-.872l-1.918-5.29h-13.659l-1.86 5.29c-.174.581-.58.872-1.162.872h-6.393c-.291 0-.465-.058-.64-.175-.174-.116-.232-.29-.232-.523 0-.116 0-.29.058-.407l13.194-33.943c.232-.523.58-.814 1.162-.814h5.522c.58 0 .988.29 1.22.814l13.078 33.943c.058.117.058.233.058.407M389.767 217.203h-6.277c-.697 0-1.046-.349-1.046-1.046v-12.962l-11.799-20.691c-.116-.233-.174-.407-.174-.581 0-.233.058-.35.232-.465.175-.117.35-.175.64-.175h7.381c.581 0 .988.233 1.22.756l6.743 13.426 6.568-13.426c.232-.523.64-.756 1.22-.756h7.382c.29 0 .465.058.64.175.174.116.232.29.232.465 0 .174-.058.348-.175.58l-11.74 20.634v13.02c0 .755-.349 1.046-1.047 1.046M411.566 182.202l.065 1.373h-.164q-.048-.363-.13-.518-.134-.25-.358-.367-.22-.12-.583-.12h-.824v4.471q0 .54.116.674.164.18.505.18h.203v.16h-2.482v-.16h.207q.372 0 .527-.224.095-.138.095-.63v-4.472h-.704q-.41 0-.582.06-.225.083-.385.316-.16.233-.19.63h-.163l.069-1.373zM415.564 188.056l-2.262-4.926v3.911q0 .54.116.674.16.18.505.18h.208v.16h-2.038v-.16h.207q.372 0 .527-.224.095-.138.095-.63v-3.824q0-.389-.086-.561-.06-.126-.225-.208-.16-.086-.518-.086v-.16h1.658l2.123 4.58 2.09-4.58h1.657v.16h-.203q-.375 0-.53.224-.096.139-.096.63v3.825q0 .54.121.674.16.18.505.18h.203v.16h-2.486v-.16h.207q.376 0 .527-.224.095-.138.095-.63v-3.91l-2.258 4.925Z"/></svg>